<?xml version="1.0" encoding="UTF-8"?>
<!DOCTYPE svg PUBLIC "-//W3C//DTD SVG 1.1//EN" "http://www.w3.org/Graphics/SVG/1.1/DTD/svg11.dtd">
<svg xmlns="http://www.w3.org/2000/svg" version="1.1" width="1200px" height="1200px" style="shape-rendering:geometricPrecision; text-rendering:geometricPrecision; image-rendering:optimizeQuality; fill-rule:evenodd; clip-rule:evenodd" xmlns:xlink="http://www.w3.org/1999/xlink">
<g><path style="opacity:0.999" fill="#0078b0" d="M 568.5,-0.5 C 589.5,-0.5 610.5,-0.5 631.5,-0.5C 818.555,13.9244 969.055,94.9244 1083,242.5C 1150.99,336.517 1189.82,441.517 1199.5,557.5C 1199.5,585.833 1199.5,614.167 1199.5,642.5C 1183.78,815.128 1109.78,956.628 977.5,1067C 963.237,1078.44 948.571,1089.27 933.5,1099.5C 884.991,1065.42 831.991,1040.08 774.5,1023.5C 767.096,1013.03 759.929,1002.37 753,991.5C 747.257,985.401 740.423,983.901 732.5,987C 724.263,994.262 715.597,1000.76 706.5,1006.5C 689.495,1003.83 672.162,1001.5 654.5,999.5C 654.5,975.167 654.5,950.833 654.5,926.5C 756.215,907.27 833.715,853.603 887,765.5C 939.35,668.123 945.35,569.789 905,470.5C 868.356,387.855 808.522,328.689 725.5,293C 707.315,285.771 688.649,280.271 669.5,276.5C 669.5,275.5 669.5,274.5 669.5,273.5C 683.182,208.105 697.182,142.772 711.5,77.5C 697.434,73.6548 683.101,70.9881 668.5,69.5C 666.9,69.5507 665.4,69.8841 664,70.5C 654.645,106.587 644.978,142.587 635,178.5C 631.533,141.695 628.366,104.028 625.5,65.5C 599.34,63.9922 572.673,64.6589 545.5,67.5C 523.98,69.8363 502.647,73.3363 481.5,78C 480.572,78.3879 479.905,79.0546 479.5,80C 494.899,145.762 509.899,211.595 524.5,277.5C 417.132,304.709 340.632,368.709 295,469.5C 256.432,565.574 260.099,660.241 306,753.5C 358.396,848.672 438.23,906.672 545.5,927.5C 545.5,951.167 545.5,974.833 545.5,998.5C 527.951,1001.43 510.618,1004.09 493.5,1006.5C 492.448,1006.65 491.448,1006.48 490.5,1006C 482.404,998.568 473.737,991.901 464.5,986C 456.813,984.006 450.646,986.173 446,992.5C 439.156,1002.86 432.323,1013.2 425.5,1023.5C 369.788,1039.86 317.788,1064.02 269.5,1096C 267.937,1096.76 266.937,1097.93 266.5,1099.5C 120.506,998.655 33.3394,859.988 5,683.5C 2.77818,666.389 0.94485,649.389 -0.5,632.5C -0.5,610.833 -0.5,589.167 -0.5,567.5C 12.7894,391.079 86.7894,246.245 221.5,133C 323.054,52.6353 438.72,8.13527 568.5,-0.5 Z"/></g>
<g><path style="opacity:1" fill="#d4f640" d="M 669.5,273.5 C 664.565,293.926 660.231,314.593 656.5,335.5C 628.761,329.796 600.761,328.129 572.5,330.5C 563.136,242.889 554.136,155.223 545.5,67.5C 572.673,64.6589 599.34,63.9922 625.5,65.5C 628.366,104.028 631.533,141.695 635,178.5C 644.978,142.587 654.645,106.587 664,70.5C 665.4,69.8841 666.9,69.5507 668.5,69.5C 683.101,70.9881 697.434,73.6548 711.5,77.5C 697.182,142.772 683.182,208.105 669.5,273.5 Z"/></g>
<g><path style="opacity:1" fill="#516405" d="M 545.5,67.5 C 554.136,155.223 563.136,242.889 572.5,330.5C 561.436,331.956 550.436,333.956 539.5,336.5C 538.402,334.368 537.402,332.202 536.5,330C 533.679,314.033 530.013,298.033 525.5,282C 525.833,281.667 526.167,281.333 526.5,281C 525.915,279.698 525.249,278.531 524.5,277.5C 509.899,211.595 494.899,145.762 479.5,80C 479.905,79.0546 480.572,78.3879 481.5,78C 502.647,73.3363 523.98,69.8363 545.5,67.5 Z"/></g>
<g><path style="opacity:1" fill="#84482c" d="M 669.5,273.5 C 669.5,274.5 669.5,275.5 669.5,276.5C 688.649,280.271 707.315,285.771 725.5,293C 808.522,328.689 868.356,387.855 905,470.5C 945.35,569.789 939.35,668.123 887,765.5C 833.715,853.603 756.215,907.27 654.5,926.5C 654.5,950.833 654.5,975.167 654.5,999.5C 672.162,1001.5 689.495,1003.83 706.5,1006.5C 706.489,1008.02 705.823,1009.18 704.5,1010C 669.58,1037.95 634.913,1066.11 600.5,1094.5C 600.167,1094.5 599.833,1094.5 599.5,1094.5C 564.269,1065.21 528.603,1036.37 492.5,1008C 493.056,1007.62 493.389,1007.12 493.5,1006.5C 510.618,1004.09 527.951,1001.43 545.5,998.5C 545.5,974.833 545.5,951.167 545.5,927.5C 438.23,906.672 358.396,848.672 306,753.5C 260.099,660.241 256.432,565.574 295,469.5C 340.632,368.709 417.132,304.709 524.5,277.5C 525.249,278.531 525.915,279.698 526.5,281C 526.167,281.333 525.833,281.667 525.5,282C 530.013,298.033 533.679,314.033 536.5,330C 537.402,332.202 538.402,334.368 539.5,336.5C 550.436,333.956 561.436,331.956 572.5,330.5C 600.761,328.129 628.761,329.796 656.5,335.5C 660.231,314.593 664.565,293.926 669.5,273.5 Z"/></g>
<g><path style="opacity:1" fill="#000000" d="M 353.5,436.5 C 517.834,436.333 682.167,436.5 846.5,437C 863.525,439.696 874.691,449.196 880,465.5C 880.667,520.167 880.667,574.833 880,629.5C 875.315,645.517 864.815,655.351 848.5,659C 786.122,659.985 723.789,659.652 661.5,658C 652.46,653.63 645.293,647.13 640,638.5C 630,615.167 620,591.833 610,568.5C 607.583,563.748 603.917,560.415 599,558.5C 594.025,560.808 590.359,564.475 588,569.5C 578.862,591.915 569.528,614.248 560,636.5C 554.78,646.054 547.28,653.22 537.5,658C 505.713,659.152 473.879,659.652 442,659.5C 411.5,659.333 381,659.167 350.5,659C 334.613,655.446 324.113,645.946 319,630.5C 317.369,577.858 317.036,525.191 318,472.5C 321.302,452.032 333.135,440.032 353.5,436.5 Z"/></g>
<g><path style="opacity:1" fill="#fd8a89" d="M 859.5,469.5 C 859.5,472.167 859.5,474.833 859.5,477.5C 778.102,499.183 696.769,521.183 615.5,543.5C 597.553,534.359 583.22,538.359 572.5,555.5C 494.613,576.474 416.613,597.474 338.5,618.5C 338.333,568.832 338.5,519.166 339,469.5C 341.5,464.333 345.333,460.5 350.5,458C 515.124,456.339 679.791,456.006 844.5,457C 851.803,458.475 856.803,462.642 859.5,469.5 Z"/></g>
<g><path style="opacity:1" fill="#571b1a" d="M 859.5,469.5 C 860.359,521.635 860.692,573.135 860.5,624C 857.587,632.64 851.587,637.807 842.5,639.5C 784.286,639.996 725.952,639.496 667.5,638C 660.863,632.915 656.03,626.415 653,618.5C 645.725,599.34 638.058,580.34 630,561.5C 626.031,554.709 621.198,548.709 615.5,543.5C 696.769,521.183 778.102,499.183 859.5,477.5C 859.5,474.833 859.5,472.167 859.5,469.5 Z"/></g>
<g><path style="opacity:1" fill="#571b1a" d="M 572.5,555.5 C 568.486,562.195 564.986,569.195 562,576.5C 555.618,595.924 547.618,614.59 538,632.5C 535.407,635.543 532.24,637.71 528.5,639C 471.127,639.491 413.96,639.658 357,639.5C 344.916,637.589 338.75,630.589 338.5,618.5C 416.613,597.474 494.613,576.474 572.5,555.5 Z"/></g>
<g><path style="opacity:1" fill="#434443" d="M 593.5,680.5 C 615.903,680.684 638.569,684.184 661.5,691C 708.013,707.855 737.513,740.355 750,788.5C 753.21,799.791 755.377,810.957 756.5,822C 756.884,828.591 754.551,834.257 749.5,839C 724.489,839.345 700.156,844.345 676.5,854C 655.54,864.293 639.04,879.46 627,899.5C 621.174,911.156 614.84,922.49 608,933.5C 601.698,940.268 595.698,939.935 590,932.5C 581.019,915.203 571.019,898.536 560,882.5C 536.479,856.903 507.479,843.236 473,841.5C 466.247,840.686 459.414,840.186 452.5,840C 445.488,836.816 442.488,831.316 443.5,823.5C 452.867,733.809 502.867,686.142 593.5,680.5 Z"/></g>
<g><path style="opacity:1" fill="#84482b" d="M 587.5,716.5 C 596,716.518 604.5,716.518 613,716.5C 637.077,718.742 658.577,727.242 677.5,742C 700.406,768.329 698.073,791.995 670.5,813C 639.15,831.725 605.484,837.392 569.5,830C 552.582,826.203 537.248,819.203 523.5,809C 505.093,792.882 501.593,774.049 513,752.5C 526.152,736.328 542.986,725.828 563.5,721C 571.58,719.156 579.58,717.656 587.5,716.5 Z"/></g>
<g><path style="opacity:1" fill="#000000" d="M 554.5,753.5 C 563.49,753.495 570.824,756.995 576.5,764C 597.106,774.72 615.772,772.053 632.5,756C 646.897,750.864 655.897,755.698 659.5,770.5C 658.889,777.889 655.556,783.722 649.5,788C 622.669,807.784 594.003,810.784 563.5,797C 555.844,792.58 549.011,787.08 543,780.5C 537.664,767.458 541.497,758.458 554.5,753.5 Z"/></g>
<g><path style="opacity:1" fill="#7c7c7c" d="M 493.5,1006.5 C 493.389,1007.12 493.056,1007.62 492.5,1008C 528.603,1036.37 564.269,1065.21 599.5,1094.5C 583.947,1103.08 568.947,1112.41 554.5,1122.5C 538.508,1133.5 522.841,1145 507.5,1157C 497.167,1160.21 489,1157.38 483,1148.5C 463.735,1106.65 444.568,1064.98 425.5,1023.5C 432.323,1013.2 439.156,1002.86 446,992.5C 450.646,986.173 456.813,984.006 464.5,986C 473.737,991.901 482.404,998.568 490.5,1006C 491.448,1006.48 492.448,1006.65 493.5,1006.5 Z"/></g>
<g><path style="opacity:1" fill="#7c7c7c" d="M 774.5,1023.5 C 755.168,1064.17 736.335,1105.17 718,1146.5C 710.644,1158.13 700.811,1160.96 688.5,1155C 674.525,1142.85 659.859,1131.68 644.5,1121.5C 630.167,1112 615.501,1103 600.5,1094.5C 634.913,1066.11 669.58,1037.95 704.5,1010C 705.823,1009.18 706.489,1008.02 706.5,1006.5C 715.597,1000.76 724.263,994.262 732.5,987C 740.423,983.901 747.257,985.401 753,991.5C 759.929,1002.37 767.096,1013.03 774.5,1023.5 Z"/></g>
<g><path style="opacity:1" fill="#010101" d="M 425.5,1023.5 C 444.568,1064.98 463.735,1106.65 483,1148.5C 489,1157.38 497.167,1160.21 507.5,1157C 522.841,1145 538.508,1133.5 554.5,1122.5C 556.544,1132.87 562.877,1138.71 573.5,1140C 571.052,1157.99 568.719,1176.32 566.5,1195C 566.605,1196.59 566.939,1198.09 567.5,1199.5C 563.833,1199.5 560.167,1199.5 556.5,1199.5C 450.97,1190.99 354.303,1157.66 266.5,1099.5C 266.937,1097.93 267.937,1096.76 269.5,1096C 317.788,1064.02 369.788,1039.86 425.5,1023.5 Z"/></g>
<g><path style="opacity:1" fill="#010101" d="M 774.5,1023.5 C 831.991,1040.08 884.991,1065.42 933.5,1099.5C 845.53,1157.71 748.864,1191.05 643.5,1199.5C 639.833,1199.5 636.167,1199.5 632.5,1199.5C 631.176,1179.57 629.176,1159.57 626.5,1139.5C 637.545,1138.46 643.545,1132.46 644.5,1121.5C 659.859,1131.68 674.525,1142.85 688.5,1155C 700.811,1160.96 710.644,1158.13 718,1146.5C 736.335,1105.17 755.168,1064.17 774.5,1023.5 Z"/></g>
<g><path style="opacity:1" fill="#fe0000" d="M 599.5,1094.5 C 599.833,1094.5 600.167,1094.5 600.5,1094.5C 615.501,1103 630.167,1112 644.5,1121.5C 643.545,1132.46 637.545,1138.46 626.5,1139.5C 629.176,1159.57 631.176,1179.57 632.5,1199.5C 610.833,1199.5 589.167,1199.5 567.5,1199.5C 566.939,1198.09 566.605,1196.59 566.5,1195C 568.719,1176.32 571.052,1157.99 573.5,1140C 562.877,1138.71 556.544,1132.87 554.5,1122.5C 568.947,1112.41 583.947,1103.08 599.5,1094.5 Z"/></g>
</svg>
