<?xml version="1.0" encoding="UTF-8"?>
<!DOCTYPE svg PUBLIC "-//W3C//DTD SVG 1.1//EN" "http://www.w3.org/Graphics/SVG/1.1/DTD/svg11.dtd">
<svg xmlns="http://www.w3.org/2000/svg" version="1.1" width="1200px" height="1200px" style="shape-rendering:geometricPrecision; text-rendering:geometricPrecision; image-rendering:optimizeQuality; fill-rule:evenodd; clip-rule:evenodd" xmlns:xlink="http://www.w3.org/1999/xlink">
<g><path style="opacity:1" fill="#e6c017" d="M 567.5,-0.5 C 589.167,-0.5 610.833,-0.5 632.5,-0.5C 798.328,11.5034 937.162,78.5034 1049,200.5C 1137.79,302.459 1187.96,421.126 1199.5,556.5C 1199.5,585.167 1199.5,613.833 1199.5,642.5C 1192.71,726.539 1169.71,805.872 1130.5,880.5C 1130.39,879.883 1130.06,879.383 1129.5,879C 1094.12,873.075 1060.45,862.075 1028.5,846C 1017.38,840.024 1008.22,831.857 1001,821.5C 994.333,810.529 995,800.195 1003,790.5C 1014.49,778.673 1027.65,769.173 1042.5,762C 1066.16,751.004 1089.83,739.67 1113.5,728C 1124.84,721.74 1135.01,713.907 1144,704.5C 1153.1,693.787 1156.43,681.454 1154,667.5C 1152.05,662.443 1149.22,657.943 1145.5,654C 1139.69,648.925 1133.35,644.592 1126.5,641C 1101.91,630.472 1077.25,620.138 1052.5,610C 1037.1,603.602 1023.6,594.435 1012,582.5C 1004.52,571.457 1003.52,559.79 1009,547.5C 1014.64,537.187 1021.81,528.021 1030.5,520C 1045.59,508.248 1060.09,495.748 1074,482.5C 1083.15,472.05 1082.31,462.384 1071.5,453.5C 1057.25,442.418 1042.58,431.918 1027.5,422C 1013.3,410.427 1003.47,395.927 998,378.5C 992.436,262.115 939.27,175.615 838.5,119C 750.492,73.0985 659.825,59.7651 566.5,79C 534.578,86.6287 505.912,100.629 480.5,121C 458.105,140.614 444.105,165.114 438.5,194.5C 419.046,195.382 399.213,197.048 379,199.5C 337.946,202.739 299.78,215.239 264.5,237C 219.5,264.667 184,301.501 158,347.5C 139.296,386.452 137.296,426.119 152,466.5C 155.725,475.618 159.725,484.618 164,493.5C 174.576,509.984 183.576,527.318 191,545.5C 199.592,578.726 190.425,605.892 163.5,627C 156.989,631.759 149.989,635.759 142.5,639C 128.699,644.232 114.699,648.899 100.5,653C 91.4429,656.028 83.1096,660.361 75.5,666C 60.6515,681.326 57.4848,698.826 66,718.5C 69.878,724.045 74.7114,728.545 80.5,732C 87.5954,735.881 94.9287,739.215 102.5,742C 123.696,748.287 144.362,755.954 164.5,765C 195.945,781.672 204.445,806.172 190,838.5C 183.383,846.449 175.55,852.949 166.5,858C 156.819,862.783 146.819,866.783 136.5,870C 115.692,875.785 94.6921,880.785 73.5,885C 72.944,885.383 72.6107,885.883 72.5,886.5C 41.7491,830.758 20.5824,771.424 9,708.5C 4.74835,683.485 1.58168,658.485 -0.5,633.5C -0.5,611.167 -0.5,588.833 -0.5,566.5C 12.9729,392.381 85.6395,248.881 217.5,136C 319.574,53.9046 436.241,8.40459 567.5,-0.5 Z"/></g>
<g><path style="opacity:1" fill="#fecb00" d="M 1130.5,880.5 C 1083.47,970.535 1017.47,1043.53 932.5,1099.5C 893.524,1072.82 851.524,1051.82 806.5,1036.5C 785.46,1028.38 763.793,1022.05 741.5,1017.5C 712.211,1010.45 682.544,1005.45 652.5,1002.5C 652.5,976.5 652.5,950.5 652.5,924.5C 757.192,902.129 836.026,844.796 889,752.5C 937.108,656.984 940.941,560.318 900.5,462.5C 891.445,461.434 882.445,461.934 873.5,464C 850.544,468.591 827.544,472.925 804.5,477C 789.292,479.089 774.292,480.255 759.5,480.5C 741.271,477.385 722.938,476.718 704.5,478.5C 673.834,475.334 643.501,470.167 613.5,463C 569.731,447.875 532.898,422.708 503,387.5C 482.585,362.733 464.918,336.067 450,307.5C 443.455,343.755 424.955,372.255 394.5,393C 380.163,402.171 365.496,410.837 350.5,419C 332.667,428.833 318.833,442.667 309,460.5C 303.776,473.209 303.442,486.209 308,499.5C 310.055,505.942 312.388,512.275 315,518.5C 324.682,537.864 334.349,557.198 344,576.5C 355.912,603.565 357.579,631.232 349,659.5C 341.171,677.168 330.838,693.168 318,707.5C 311.383,719.809 309.717,732.809 313,746.5C 317.832,764.163 325.832,780.163 337,794.5C 390.544,863.961 460.544,907.295 547,924.5C 547.667,950.167 547.667,975.833 547,1001.5C 517.033,1005.47 487.2,1010.47 457.5,1016.5C 435.803,1021.62 414.47,1027.95 393.5,1035.5C 348.459,1051.85 306.126,1073.19 266.5,1099.5C 194.274,1051.11 135.107,990.108 89,916.5C 83.2216,906.606 77.7216,896.606 72.5,886.5C 72.6107,885.883 72.944,885.383 73.5,885C 94.6921,880.785 115.692,875.785 136.5,870C 146.819,866.783 156.819,862.783 166.5,858C 175.55,852.949 183.383,846.449 190,838.5C 204.445,806.172 195.945,781.672 164.5,765C 144.362,755.954 123.696,748.287 102.5,742C 94.9287,739.215 87.5954,735.881 80.5,732C 74.7114,728.545 69.878,724.045 66,718.5C 57.4848,698.826 60.6515,681.326 75.5,666C 83.1096,660.361 91.4429,656.028 100.5,653C 114.699,648.899 128.699,644.232 142.5,639C 149.989,635.759 156.989,631.759 163.5,627C 190.425,605.892 199.592,578.726 191,545.5C 183.576,527.318 174.576,509.984 164,493.5C 159.725,484.618 155.725,475.618 152,466.5C 137.296,426.119 139.296,386.452 158,347.5C 184,301.501 219.5,264.667 264.5,237C 299.78,215.239 337.946,202.739 379,199.5C 399.213,197.048 419.046,195.382 438.5,194.5C 444.105,165.114 458.105,140.614 480.5,121C 505.912,100.629 534.578,86.6287 566.5,79C 659.825,59.7651 750.492,73.0985 838.5,119C 939.27,175.615 992.436,262.115 998,378.5C 1003.47,395.927 1013.3,410.427 1027.5,422C 1042.58,431.918 1057.25,442.418 1071.5,453.5C 1082.31,462.384 1083.15,472.05 1074,482.5C 1060.09,495.748 1045.59,508.248 1030.5,520C 1021.81,528.021 1014.64,537.187 1009,547.5C 1003.52,559.79 1004.52,571.457 1012,582.5C 1023.6,594.435 1037.1,603.602 1052.5,610C 1077.25,620.138 1101.91,630.472 1126.5,641C 1133.35,644.592 1139.69,648.925 1145.5,654C 1149.22,657.943 1152.05,662.443 1154,667.5C 1156.43,681.454 1153.1,693.787 1144,704.5C 1135.01,713.907 1124.84,721.74 1113.5,728C 1089.83,739.67 1066.16,751.004 1042.5,762C 1027.65,769.173 1014.49,778.673 1003,790.5C 995,800.195 994.333,810.529 1001,821.5C 1008.22,831.857 1017.38,840.024 1028.5,846C 1060.45,862.075 1094.12,873.075 1129.5,879C 1130.06,879.383 1130.39,879.883 1130.5,880.5 Z"/></g>
<g><path style="opacity:1" fill="#fe0300" d="M 728.5,143.5 C 740.932,142.7 751.932,146.2 761.5,154C 764.375,157.044 767.375,159.877 770.5,162.5C 787.902,142.631 808.236,139.131 831.5,152C 845.905,162.528 851.738,176.695 849,194.5C 847.686,198.754 846.853,203.087 846.5,207.5C 865.308,209.463 877.808,219.463 884,237.5C 889.751,268.798 876.918,287.632 845.5,294C 855.09,320.476 847.423,340.143 822.5,353C 801.494,359.872 783.994,354.705 770,337.5C 747.328,361.708 723.662,362.708 699,340.5C 689.49,326.044 687.99,310.711 694.5,294.5C 673.65,291.482 660.483,279.815 655,259.5C 651.898,229.941 664.898,212.274 694,206.5C 685.98,183.419 691.814,164.586 711.5,150C 716.882,146.712 722.549,144.545 728.5,143.5 Z"/></g>
<g><path style="opacity:1" fill="#fefd01" d="M 763.5,221.5 C 784.418,220.084 796.418,229.751 799.5,250.5C 797.973,264.419 790.64,273.586 777.5,278C 759.471,280.908 747.638,273.741 742,256.5C 739.993,239.04 747.16,227.373 763.5,221.5 Z"/></g>
<g><path style="opacity:1" fill="#fecd72" d="M 704.5,478.5 C 682.088,482.789 662.588,492.789 646,508.5C 642.028,515.957 643.861,522.123 651.5,527C 654.833,527.667 658.167,527.667 661.5,527C 696.046,499.312 733.713,494.979 774.5,514C 780.833,518.333 787.167,522.667 793.5,527C 807.668,528.494 812.834,522.327 809,508.5C 794.63,495.398 778.13,486.065 759.5,480.5C 774.292,480.255 789.292,479.089 804.5,477C 827.544,472.925 850.544,468.591 873.5,464C 882.445,461.934 891.445,461.434 900.5,462.5C 940.941,560.318 937.108,656.984 889,752.5C 836.026,844.796 757.192,902.129 652.5,924.5C 652.5,950.5 652.5,976.5 652.5,1002.5C 682.544,1005.45 712.211,1010.45 741.5,1017.5C 741.667,1032.5 741.5,1047.5 741,1062.5C 734.691,1103.47 711.524,1129.31 671.5,1140C 647.367,1141.14 623.201,1141.64 599,1141.5C 576.833,1141.33 554.667,1141.17 532.5,1141C 487.61,1131.11 462.777,1103.27 458,1057.5C 457.5,1043.84 457.333,1030.17 457.5,1016.5C 487.2,1010.47 517.033,1005.47 547,1001.5C 547.667,975.833 547.667,950.167 547,924.5C 460.544,907.295 390.544,863.961 337,794.5C 325.832,780.163 317.832,764.163 313,746.5C 309.717,732.809 311.383,719.809 318,707.5C 330.838,693.168 341.171,677.168 349,659.5C 357.579,631.232 355.912,603.565 344,576.5C 334.349,557.198 324.682,537.864 315,518.5C 312.388,512.275 310.055,505.942 308,499.5C 303.442,486.209 303.776,473.209 309,460.5C 318.833,442.667 332.667,428.833 350.5,419C 365.496,410.837 380.163,402.171 394.5,393C 424.955,372.255 443.455,343.755 450,307.5C 464.918,336.067 482.585,362.733 503,387.5C 532.898,422.708 569.731,447.875 613.5,463C 643.501,470.167 673.834,475.334 704.5,478.5 Z"/></g>
<g><path style="opacity:1" fill="#040301" d="M 456.5,477.5 C 491.71,473.963 523.043,483.13 550.5,505C 556.039,510.471 556.872,516.638 553,523.5C 548.827,527.191 543.993,528.358 538.5,527C 506.498,501.384 471.498,495.718 433.5,510C 423.967,514.876 414.967,520.543 406.5,527C 396.455,529.45 390.455,525.617 388.5,515.5C 388.857,511.882 390.191,508.715 392.5,506C 411.234,490.592 432.567,481.092 456.5,477.5 Z"/></g>
<g><path style="opacity:1" fill="#040301" d="M 759.5,480.5 C 778.13,486.065 794.63,495.398 809,508.5C 812.834,522.327 807.668,528.494 793.5,527C 787.167,522.667 780.833,518.333 774.5,514C 733.713,494.979 696.046,499.312 661.5,527C 658.167,527.667 654.833,527.667 651.5,527C 643.861,522.123 642.028,515.957 646,508.5C 662.588,492.789 682.088,482.789 704.5,478.5C 722.938,476.718 741.271,477.385 759.5,480.5 Z"/></g>
<g><path style="opacity:1" fill="#060402" d="M 430.5,549.5 C 458.169,549.333 485.835,549.5 513.5,550C 521.588,554.689 523.421,561.189 519,569.5C 517.048,571.894 514.548,573.394 511.5,574C 485.5,574.667 459.5,574.667 433.5,574C 425.041,571.585 421.874,566.085 424,557.5C 425.305,554.039 427.471,551.372 430.5,549.5 Z"/></g>
<g><path style="opacity:1" fill="#060402" d="M 685.5,549.5 C 713.502,549.333 741.502,549.5 769.5,550C 776.07,553.655 778.237,559.155 776,566.5C 774.084,570.085 771.251,572.585 767.5,574C 741.167,574.667 714.833,574.667 688.5,574C 680.544,571.253 677.377,565.753 679,557.5C 680.305,554.039 682.471,551.372 685.5,549.5 Z"/></g>
<g><path style="opacity:1" fill="#f70314" d="M 562.5,741.5 C 567.984,741.364 573.318,742.197 578.5,744C 586.225,748.392 593.392,753.559 600,759.5C 607.003,752.833 614.836,747.333 623.5,743C 631.882,740.741 639.882,741.741 647.5,746C 664.006,756.752 680.339,767.752 696.5,779C 697.574,779.739 698.241,780.739 698.5,782C 666.263,831.322 621.93,848.989 565.5,835C 537.686,824.69 516.019,806.857 500.5,781.5C 519.982,766.107 540.648,752.774 562.5,741.5 Z"/></g>
<g><path style="opacity:1" fill="#ff17e2" d="M 457.5,1016.5 C 457.333,1030.17 457.5,1043.84 458,1057.5C 462.777,1103.27 487.61,1131.11 532.5,1141C 554.667,1141.17 576.833,1141.33 599,1141.5C 623.201,1141.64 647.367,1141.14 671.5,1140C 711.524,1129.31 734.691,1103.47 741,1062.5C 741.5,1047.5 741.667,1032.5 741.5,1017.5C 763.793,1022.05 785.46,1028.38 806.5,1036.5C 806.5,1078.83 806.5,1121.17 806.5,1163.5C 754.117,1182.78 700.117,1194.78 644.5,1199.5C 614.5,1199.5 584.5,1199.5 554.5,1199.5C 499.185,1194.9 445.518,1182.9 393.5,1163.5C 393.5,1120.83 393.5,1078.17 393.5,1035.5C 414.47,1027.95 435.803,1021.62 457.5,1016.5 Z"/></g>
<g><path style="opacity:1" fill="#fecd72" d="M 393.5,1035.5 C 393.5,1078.17 393.5,1120.83 393.5,1163.5C 348.186,1147.68 305.853,1126.34 266.5,1099.5C 306.126,1073.19 348.459,1051.85 393.5,1035.5 Z"/></g>
<g><path style="opacity:1" fill="#fecd72" d="M 806.5,1036.5 C 851.524,1051.82 893.524,1072.82 932.5,1099.5C 893.365,1126.07 851.365,1147.4 806.5,1163.5C 806.5,1121.17 806.5,1078.83 806.5,1036.5 Z"/></g>
</svg>
