<?xml version="1.0" encoding="UTF-8"?>
<!DOCTYPE svg PUBLIC "-//W3C//DTD SVG 1.1//EN" "http://www.w3.org/Graphics/SVG/1.1/DTD/svg11.dtd">
<svg xmlns="http://www.w3.org/2000/svg" version="1.1" width="1200px" height="1200px" style="shape-rendering:geometricPrecision; text-rendering:geometricPrecision; image-rendering:optimizeQuality; fill-rule:evenodd; clip-rule:evenodd" xmlns:xlink="http://www.w3.org/1999/xlink">
<g><path style="opacity:0.999" fill="#01dcfe" d="M 567.5,-0.5 C 588.833,-0.5 610.167,-0.5 631.5,-0.5C 797.234,11.1241 936.068,77.7908 1048,199.5C 1137.36,301.609 1187.86,420.609 1199.5,556.5C 1199.5,585.167 1199.5,613.833 1199.5,642.5C 1183.94,813.136 1111.27,953.636 981.5,1064C 965.648,1076.09 949.648,1087.92 933.5,1099.5C 922.747,1091.28 911.413,1083.78 899.5,1077C 859.646,1054.57 817.979,1036.74 774.5,1023.5C 767.096,1013.03 759.929,1002.37 753,991.5C 748.032,985.885 741.865,984.052 734.5,986C 725.291,993.382 715.957,1000.55 706.5,1007.5C 689.472,1003.88 672.139,1001.54 654.5,1000.5C 654.167,975.824 654.5,951.158 655.5,926.5C 755.262,907.08 831.762,854.413 885,768.5C 902.314,738.724 914.814,707.057 922.5,673.5C 928.76,646.979 932.927,619.979 935,592.5C 937.365,559.207 938.531,525.874 938.5,492.5C 937.461,381.755 933.961,271.088 928,160.5C 927.439,159.978 926.772,159.645 926,159.5C 876.299,181.073 824.799,195.906 771.5,204C 714.96,208.144 670.127,187.311 637,141.5C 616.624,110.405 601.957,76.7387 593,40.5C 584.804,69.0779 573.47,96.4112 559,122.5C 522.533,184.068 468.533,211.401 397,204.5C 352.829,195.229 311.163,179.896 272,158.5C 263.775,290.714 260.442,423.047 262,555.5C 263.095,590.117 266.762,624.451 273,658.5C 274.199,664.044 275.699,669.377 277.5,674.5C 298.005,759.738 344.339,826.905 416.5,876C 455.945,901.715 498.945,918.549 545.5,926.5C 545.667,950.836 545.5,975.169 545,999.5C 527.421,1001.63 509.921,1004.3 492.5,1007.5C 483.637,999.814 474.303,992.647 464.5,986C 456.726,983.757 450.559,985.923 446,992.5C 439.156,1002.86 432.323,1013.2 425.5,1023.5C 370.162,1040.33 318.162,1064.5 269.5,1096C 267.937,1096.76 266.937,1097.93 266.5,1099.5C 126.209,1003.04 40.0423,870.709 8,702.5C 4.24485,679.461 1.41152,656.461 -0.5,633.5C -0.5,611.167 -0.5,588.833 -0.5,566.5C 12.9552,392.417 85.6219,248.917 217.5,136C 319.574,53.9046 436.241,8.40459 567.5,-0.5 Z"/></g>
<g><path style="opacity:1" fill="#fee802" d="M 922.5,673.5 C 922.59,633.613 920.09,593.613 915,553.5C 908.961,503.466 892.295,457.466 865,415.5C 833.938,373.8 793.438,345.3 743.5,330C 701.602,317.831 659.436,311.331 617,310.5C 582.155,310.053 546.988,312.219 511.5,317C 465.362,323.373 423.029,339.373 384.5,365C 341.968,397.18 313.134,439.013 298,490.5C 286.458,530.587 279.624,571.42 277.5,613C 277.381,633.06 277.381,653.56 277.5,674.5C 275.699,669.377 274.199,664.044 273,658.5C 266.762,624.451 263.095,590.117 262,555.5C 260.442,423.047 263.775,290.714 272,158.5C 311.163,179.896 352.829,195.229 397,204.5C 468.533,211.401 522.533,184.068 559,122.5C 573.47,96.4112 584.804,69.0779 593,40.5C 601.957,76.7387 616.624,110.405 637,141.5C 670.127,187.311 714.96,208.144 771.5,204C 824.799,195.906 876.299,181.073 926,159.5C 926.772,159.645 927.439,159.978 928,160.5C 933.961,271.088 937.461,381.755 938.5,492.5C 938.531,525.874 937.365,559.207 935,592.5C 932.927,619.979 928.76,646.979 922.5,673.5 Z"/></g>
<g><path style="opacity:1" fill="#fed69c" d="M 922.5,673.5 C 914.814,707.057 902.314,738.724 885,768.5C 831.762,854.413 755.262,907.08 655.5,926.5C 654.5,951.158 654.167,975.824 654.5,1000.5C 672.139,1001.54 689.472,1003.88 706.5,1007.5C 671.167,1036.5 635.833,1065.5 600.5,1094.5C 600.167,1094.5 599.833,1094.5 599.5,1094.5C 564.017,1065.26 528.35,1036.26 492.5,1007.5C 509.921,1004.3 527.421,1001.63 545,999.5C 545.5,975.169 545.667,950.836 545.5,926.5C 498.945,918.549 455.945,901.715 416.5,876C 344.339,826.905 298.005,759.738 277.5,674.5C 277.381,653.56 277.381,633.06 277.5,613C 279.624,571.42 286.458,530.587 298,490.5C 313.134,439.013 341.968,397.18 384.5,365C 423.029,339.373 465.362,323.373 511.5,317C 546.988,312.219 582.155,310.053 617,310.5C 659.436,311.331 701.602,317.831 743.5,330C 793.438,345.3 833.938,373.8 865,415.5C 892.295,457.466 908.961,503.466 915,553.5C 920.09,593.613 922.59,633.613 922.5,673.5 Z"/></g>
<g><path style="opacity:1" fill="#050505" d="M 421.5,551.5 C 458.32,560.372 494.987,569.872 531.5,580C 539.249,583.423 542.082,589.256 540,597.5C 536.024,604.236 530.191,606.736 522.5,605C 487.833,595.667 453.167,586.333 418.5,577C 407.091,566.905 408.091,558.405 421.5,551.5 Z"/></g>
<g><path style="opacity:1" fill="#030302" d="M 772.5,551.5 C 783.998,552.159 789.165,558.159 788,569.5C 785.708,573.788 782.208,576.622 777.5,578C 743.402,586.691 709.402,595.691 675.5,605C 663.384,606.218 657.884,600.718 659,588.5C 661.222,584.612 664.388,581.779 668.5,580C 703.376,570.8 738.042,561.3 772.5,551.5 Z"/></g>
<g><path style="opacity:1" fill="#040404" d="M 539.5,762.5 C 550.398,763.851 561.064,766.351 571.5,770C 594.694,772.74 617.694,771.74 640.5,767C 646.479,763.78 652.812,762.447 659.5,763C 668.853,766.202 672.687,772.702 671,782.5C 669.6,785.902 667.433,788.736 664.5,791C 622.792,806.864 580.792,807.531 538.5,793C 529.823,788.81 526.657,781.976 529,772.5C 531.738,768.26 535.238,764.926 539.5,762.5 Z"/></g>
<g><path style="opacity:1" fill="#7c7c7c" d="M 492.5,1007.5 C 528.35,1036.26 564.017,1065.26 599.5,1094.5C 583.624,1102.6 568.624,1111.93 554.5,1122.5C 538.508,1133.5 522.841,1145 507.5,1157C 498.247,1159.9 490.413,1157.73 484,1150.5C 464.575,1108.02 445.075,1065.69 425.5,1023.5C 432.323,1013.2 439.156,1002.86 446,992.5C 450.559,985.923 456.726,983.757 464.5,986C 474.303,992.647 483.637,999.814 492.5,1007.5 Z"/></g>
<g><path style="opacity:1" fill="#7c7c7c" d="M 774.5,1023.5 C 755.168,1064.17 736.335,1105.17 718,1146.5C 712.136,1156.52 703.636,1160.02 692.5,1157C 676.955,1145.28 661.289,1133.78 645.5,1122.5C 631.376,1111.93 616.376,1102.6 600.5,1094.5C 635.833,1065.5 671.167,1036.5 706.5,1007.5C 715.957,1000.55 725.291,993.382 734.5,986C 741.865,984.052 748.032,985.885 753,991.5C 759.929,1002.37 767.096,1013.03 774.5,1023.5 Z"/></g>
<g><path style="opacity:1" fill="#020202" d="M 425.5,1023.5 C 445.075,1065.69 464.575,1108.02 484,1150.5C 490.413,1157.73 498.247,1159.9 507.5,1157C 522.841,1145 538.508,1133.5 554.5,1122.5C 555.944,1132.94 561.944,1138.61 572.5,1139.5C 570.576,1159.37 568.243,1178.87 565.5,1198C 566.056,1198.38 566.389,1198.88 566.5,1199.5C 562.833,1199.5 559.167,1199.5 555.5,1199.5C 450.377,1190.8 354.044,1157.46 266.5,1099.5C 266.937,1097.93 267.937,1096.76 269.5,1096C 318.162,1064.5 370.162,1040.33 425.5,1023.5 Z"/></g>
<g><path style="opacity:1" fill="#010202" d="M 774.5,1023.5 C 817.979,1036.74 859.646,1054.57 899.5,1077C 911.413,1083.78 922.747,1091.28 933.5,1099.5C 845.525,1157.71 748.859,1191.05 643.5,1199.5C 640.167,1199.5 636.833,1199.5 633.5,1199.5C 631.494,1179.3 629.161,1159.47 626.5,1140C 637.272,1138.72 643.605,1132.89 645.5,1122.5C 661.289,1133.78 676.955,1145.28 692.5,1157C 703.636,1160.02 712.136,1156.52 718,1146.5C 736.335,1105.17 755.168,1064.17 774.5,1023.5 Z"/></g>
<g><path style="opacity:1" fill="#fd0000" d="M 599.5,1094.5 C 599.833,1094.5 600.167,1094.5 600.5,1094.5C 616.376,1102.6 631.376,1111.93 645.5,1122.5C 643.605,1132.89 637.272,1138.72 626.5,1140C 629.161,1159.47 631.494,1179.3 633.5,1199.5C 611.167,1199.5 588.833,1199.5 566.5,1199.5C 566.389,1198.88 566.056,1198.38 565.5,1198C 568.243,1178.87 570.576,1159.37 572.5,1139.5C 561.944,1138.61 555.944,1132.94 554.5,1122.5C 568.624,1111.93 583.624,1102.6 599.5,1094.5 Z"/></g>
</svg>
