<?xml version="1.0" encoding="UTF-8"?>
<!DOCTYPE svg PUBLIC "-//W3C//DTD SVG 1.1//EN" "http://www.w3.org/Graphics/SVG/1.1/DTD/svg11.dtd">
<svg xmlns="http://www.w3.org/2000/svg" version="1.1" width="1200px" height="1200px" style="shape-rendering:geometricPrecision; text-rendering:geometricPrecision; image-rendering:optimizeQuality; fill-rule:evenodd; clip-rule:evenodd" xmlns:xlink="http://www.w3.org/1999/xlink">
<g><path style="opacity:0.998" fill="#fe9700" d="M 568.5,-0.5 C 589.167,-0.5 609.833,-0.5 630.5,-0.5C 819.452,13.7038 970.952,95.7038 1085,245.5C 1152.07,338.69 1190.24,442.69 1199.5,557.5C 1199.5,585.5 1199.5,613.5 1199.5,641.5C 1182.8,823.111 1102.8,969.611 959.5,1081C 950.934,1087.08 942.267,1092.91 933.5,1098.5C 916.669,1087.34 899.336,1077.01 881.5,1067.5C 863.318,1057.74 844.651,1049.08 825.5,1041.5C 799.85,1030.84 773.517,1022.17 746.5,1015.5C 746.5,1014.5 746.5,1013.5 746.5,1012.5C 731.747,1009.18 716.913,1006.18 702,1003.5C 700.624,1003.68 699.791,1004.35 699.5,1005.5C 684.565,1003.26 669.565,1001.59 654.5,1000.5C 654.167,975.824 654.5,951.158 655.5,926.5C 777.882,901.614 862.715,831.614 910,716.5C 922.436,682.949 929.27,648.282 930.5,612.5C 970.263,602.523 1008.93,589.69 1046.5,574C 1075.7,561.482 1101.86,544.316 1125,522.5C 1135.14,511.887 1142.48,499.554 1147,485.5C 1151.65,463.111 1146.65,442.778 1132,424.5C 1117.36,407.121 1100.2,392.955 1080.5,382C 1039.48,360.313 996.481,343.313 951.5,331C 930.566,325.735 909.566,320.902 888.5,316.5C 885.553,295.096 881.22,274.096 875.5,253.5C 867.096,216.365 853.929,181.031 836,147.5C 818.699,115.531 794.532,90.0309 763.5,71C 748.681,63.5604 733.014,59.0604 716.5,57.5C 705.419,58.7702 694.753,61.6035 684.5,66C 661.203,78.4822 637.536,90.1488 613.5,101C 578.297,112.77 544.63,116.103 512.5,111C 486.8,105.825 461.134,100.492 435.5,95C 413.348,90.737 394.515,96.5703 379,112.5C 370.161,123.499 362.827,135.499 357,148.5C 342.601,182.864 331.101,218.197 322.5,254.5C 316.196,274.669 311.53,295.336 308.5,316.5C 260.298,326.178 213.298,340.011 167.5,358C 139.798,369.01 114.131,383.343 90.5,401C 74.6321,413.257 62.4654,428.424 54,446.5C 49.3588,458.403 48.6921,470.403 52,482.5C 57.844,501.687 68.344,517.854 83.5,531C 108.089,550.805 135.089,566.805 164.5,579C 198.32,592.741 232.987,603.907 268.5,612.5C 277.096,735.257 334.096,827.757 439.5,890C 472.746,908.249 508.079,920.415 545.5,926.5C 545.667,950.836 545.5,975.169 545,999.5C 529.844,1001.26 514.677,1003.26 499.5,1005.5C 499.209,1004.35 498.376,1003.68 497,1003.5C 482.029,1006.03 467.196,1009.19 452.5,1013C 453.252,1013.67 453.586,1014.5 453.5,1015.5C 426.092,1021.97 399.425,1030.64 373.5,1041.5C 354.035,1048.98 335.368,1057.98 317.5,1068.5C 299.326,1077.08 282.326,1087.41 266.5,1099.5C 120.521,998.693 33.3542,860.026 5,683.5C 2.77818,666.389 0.94485,649.389 -0.5,632.5C -0.5,610.833 -0.5,589.167 -0.5,567.5C 13.2026,386.573 90.2026,239.406 230.5,126C 330.128,49.8353 442.795,7.66859 568.5,-0.5 Z"/></g>
<g><path style="opacity:1" fill="#333333" d="M 875.5,253.5 C 810.967,238.933 745.634,230.1 679.5,227C 573.337,221.259 467.671,227.259 362.5,245C 349.105,248.183 335.772,251.35 322.5,254.5C 331.101,218.197 342.601,182.864 357,148.5C 362.827,135.499 370.161,123.499 379,112.5C 394.515,96.5703 413.348,90.737 435.5,95C 461.134,100.492 486.8,105.825 512.5,111C 544.63,116.103 578.297,112.77 613.5,101C 637.536,90.1488 661.203,78.4822 684.5,66C 694.753,61.6035 705.419,58.7702 716.5,57.5C 733.014,59.0604 748.681,63.5604 763.5,71C 794.532,90.0309 818.699,115.531 836,147.5C 853.929,181.031 867.096,216.365 875.5,253.5 Z"/></g>
<g><path style="opacity:1" fill="#aeaeae" d="M 875.5,253.5 C 881.22,274.096 885.553,295.096 888.5,316.5C 793.252,298.326 697.085,289.326 600,289.5C 501.928,288.954 404.762,297.954 308.5,316.5C 311.53,295.336 316.196,274.669 322.5,254.5C 335.772,251.35 349.105,248.183 362.5,245C 467.671,227.259 573.337,221.259 679.5,227C 745.634,230.1 810.967,238.933 875.5,253.5 Z"/></g>
<g><path style="opacity:1" fill="#222222" d="M 888.5,316.5 C 909.566,320.902 930.566,325.735 951.5,331C 996.481,343.313 1039.48,360.313 1080.5,382C 1100.2,392.955 1117.36,407.121 1132,424.5C 1146.65,442.778 1151.65,463.111 1147,485.5C 1142.48,499.554 1135.14,511.887 1125,522.5C 1101.86,544.316 1075.7,561.482 1046.5,574C 1008.93,589.69 970.263,602.523 930.5,612.5C 930.5,606.167 930.5,599.833 930.5,593.5C 930.259,588.522 930.592,583.355 931.5,578C 930.833,569.333 930.167,560.667 929.5,552C 930.051,550.602 930.384,549.268 930.5,548C 929.833,543.333 929.167,538.667 928.5,534C 929.051,532.602 929.384,531.268 929.5,530C 928.833,525.667 928.167,521.333 927.5,517C 927.833,516.667 928.167,516.333 928.5,516C 926.953,502.701 925.286,489.701 923.5,477C 923.833,476.667 924.167,476.333 924.5,476C 923.4,469.48 922.067,462.98 920.5,456.5C 889.628,445.944 858.295,438.611 826.5,434.5C 712.909,414.519 598.575,409.353 483.5,419C 447.322,422.641 411.322,427.475 375.5,433.5C 342.658,438.419 310.492,446.086 279,456.5C 277.755,461.706 276.589,467.206 275.5,473C 275.833,473.333 276.167,473.667 276.5,474C 275.833,476.333 275.167,478.667 274.5,481C 274.833,481.333 275.167,481.667 275.5,482C 270.122,518.93 268.122,556.096 269.5,593.5C 269.823,600.022 269.49,606.355 268.5,612.5C 232.987,603.907 198.32,592.741 164.5,579C 135.089,566.805 108.089,550.805 83.5,531C 68.344,517.854 57.844,501.687 52,482.5C 48.6921,470.403 49.3588,458.403 54,446.5C 62.4654,428.424 74.6321,413.257 90.5,401C 114.131,383.343 139.798,369.01 167.5,358C 213.298,340.011 260.298,326.178 308.5,316.5C 404.762,297.954 501.928,288.954 600,289.5C 697.085,289.326 793.252,298.326 888.5,316.5 Z"/></g>
<g><path style="opacity:1" fill="#f9d1b8" d="M 826.5,434.5 C 842.897,483.422 854.897,533.422 862.5,584.5C 885.337,586.572 908.003,589.572 930.5,593.5C 930.5,599.833 930.5,606.167 930.5,612.5C 929.27,648.282 922.436,682.949 910,716.5C 862.715,831.614 777.882,901.614 655.5,926.5C 654.5,951.158 654.167,975.824 654.5,1000.5C 669.565,1001.59 684.565,1003.26 699.5,1005.5C 692.49,1049.68 667.49,1078.18 624.5,1091C 584.019,1099.73 549.519,1088.23 521,1056.5C 509.461,1041.41 502.295,1024.41 499.5,1005.5C 514.677,1003.26 529.844,1001.26 545,999.5C 545.5,975.169 545.667,950.836 545.5,926.5C 508.079,920.415 472.746,908.249 439.5,890C 334.096,827.757 277.096,735.257 268.5,612.5C 269.49,606.355 269.823,600.022 269.5,593.5C 291.937,589.195 314.604,586.195 337.5,584.5C 343.917,536.832 354.75,490.165 370,444.5C 371.188,440.387 373.021,436.72 375.5,433.5C 411.322,427.475 447.322,422.641 483.5,419C 598.575,409.353 712.909,414.519 826.5,434.5 Z"/></g>
<g><path style="opacity:1" fill="#6d3a1d" d="M 375.5,433.5 C 373.021,436.72 371.188,440.387 370,444.5C 354.75,490.165 343.917,536.832 337.5,584.5C 314.604,586.195 291.937,589.195 269.5,593.5C 268.122,556.096 270.122,518.93 275.5,482C 275.167,481.667 274.833,481.333 274.5,481C 275.167,478.667 275.833,476.333 276.5,474C 276.167,473.667 275.833,473.333 275.5,473C 276.589,467.206 277.755,461.706 279,456.5C 310.492,446.086 342.658,438.419 375.5,433.5 Z"/></g>
<g><path style="opacity:1" fill="#6d3a1d" d="M 826.5,434.5 C 858.295,438.611 889.628,445.944 920.5,456.5C 922.067,462.98 923.4,469.48 924.5,476C 924.167,476.333 923.833,476.667 923.5,477C 925.286,489.701 926.953,502.701 928.5,516C 928.167,516.333 927.833,516.667 927.5,517C 928.167,521.333 928.833,525.667 929.5,530C 929.384,531.268 929.051,532.602 928.5,534C 929.167,538.667 929.833,543.333 930.5,548C 930.384,549.268 930.051,550.602 929.5,552C 930.167,560.667 930.833,569.333 931.5,578C 930.592,583.355 930.259,588.522 930.5,593.5C 908.003,589.572 885.337,586.572 862.5,584.5C 854.897,533.422 842.897,483.422 826.5,434.5 Z"/></g>
<g><path style="opacity:1" fill="#7a5848" d="M 452.5,481.5 C 476.474,479.105 499.141,483.272 520.5,494C 527.344,502.278 527.011,510.278 519.5,518C 516.408,519.864 513.074,521.031 509.5,521.5C 499.399,517.891 489.066,515.058 478.5,513C 461.06,511.198 444.393,513.865 428.5,521C 415.25,521.38 409.083,514.88 410,501.5C 411.198,497.254 413.698,494.087 417.5,492C 428.863,487.081 440.53,483.581 452.5,481.5 Z"/></g>
<g><path style="opacity:1" fill="#795748" d="M 668.5,480.5 C 677.383,482.295 686.049,484.795 694.5,488C 706.173,489.93 717.84,489.93 729.5,488C 738.131,485.934 746.631,483.434 755,480.5C 769.089,483.677 773.423,492.01 768,505.5C 766.5,507 765,508.5 763.5,510C 730.58,524.206 697.58,524.54 664.5,511C 656.892,506.614 654.058,500.114 656,491.5C 658.537,485.785 662.704,482.118 668.5,480.5 Z"/></g>
<g><path style="opacity:1" fill="#040303" d="M 459.5,552.5 C 474.326,550.143 485.159,555.476 492,568.5C 495.67,584.826 489.836,596.326 474.5,603C 458.494,605.751 447.661,599.584 442,584.5C 439.762,569.302 445.596,558.636 459.5,552.5 Z"/></g>
<g><path style="opacity:1" fill="#020202" d="M 704.5,552.5 C 719.183,549.596 730.016,554.596 737,567.5C 741.867,584.257 736.367,596.09 720.5,603C 704.302,606.116 693.469,599.95 688,584.5C 685.432,569.592 690.932,558.926 704.5,552.5 Z"/></g>
<g><path style="opacity:1" fill="#040303" d="M 484.5,753.5 C 491.011,752.92 497.011,754.42 502.5,758C 507.544,762.615 508.71,768.115 506,774.5C 504.185,776.405 502.185,778.072 500,779.5C 500.422,776.902 500.422,774.236 500,771.5C 492.587,763.321 485.587,763.655 479,772.5C 475.217,781.807 477.384,789.641 485.5,796C 504.241,809.058 522.574,808.391 540.5,794C 549.427,784.059 559.76,776.059 571.5,770C 585.113,767.636 594.446,772.803 599.5,785.5C 604.578,772.792 613.912,767.625 627.5,770C 638.873,775.685 648.873,783.351 657.5,793C 678.723,810.357 699.223,809.524 719,790.5C 724.176,780.376 722.009,772.209 712.5,766C 702.222,764.945 697.722,769.445 699,779.5C 688.891,773.311 688.058,766.145 696.5,758C 700.611,755.296 705.111,753.796 710,753.5C 723.373,754.222 732.04,760.888 736,773.5C 739.929,798.552 730.429,816.386 707.5,827C 691.715,834.821 675.049,837.488 657.5,835C 641.28,833.218 626.613,827.551 613.5,818C 606.719,812.286 602.052,805.119 599.5,796.5C 594.092,811.742 583.759,822.242 568.5,828C 546.93,836.25 524.93,837.583 502.5,832C 486.77,826.923 474.604,817.423 466,803.5C 460.994,792.428 460.327,781.094 464,769.5C 468.399,760.922 475.232,755.589 484.5,753.5 Z"/></g>
<g><path style="opacity:1" fill="#fecd1c" d="M 499.5,1005.5 C 502.295,1024.41 509.461,1041.41 521,1056.5C 549.519,1088.23 584.019,1099.73 624.5,1091C 667.49,1078.18 692.49,1049.68 699.5,1005.5C 699.791,1004.35 700.624,1003.68 702,1003.5C 716.913,1006.18 731.747,1009.18 746.5,1012.5C 746.5,1013.5 746.5,1014.5 746.5,1015.5C 741.615,1041.27 731.282,1064.6 715.5,1085.5C 677.529,1129.62 629.529,1147.12 571.5,1138C 536.566,1130.55 507.566,1113.38 484.5,1086.5C 468.475,1065.44 458.141,1041.77 453.5,1015.5C 453.586,1014.5 453.252,1013.67 452.5,1013C 467.196,1009.19 482.029,1006.03 497,1003.5C 498.376,1003.68 499.209,1004.35 499.5,1005.5 Z"/></g>
<g><path style="opacity:1" fill="#0ca1df" d="M 453.5,1015.5 C 458.141,1041.77 468.475,1065.44 484.5,1086.5C 484.832,1120.67 484.498,1154.67 483.5,1188.5C 446.001,1181.71 409.667,1171.04 374.5,1156.5C 373.506,1118.24 373.173,1079.91 373.5,1041.5C 399.425,1030.64 426.092,1021.97 453.5,1015.5 Z"/></g>
<g><path style="opacity:1" fill="#09a1df" d="M 746.5,1015.5 C 773.517,1022.17 799.85,1030.84 825.5,1041.5C 825.5,1079.83 825.5,1118.17 825.5,1156.5C 790.63,1170.89 754.63,1181.55 717.5,1188.5C 715.507,1154.52 714.84,1120.18 715.5,1085.5C 731.282,1064.6 741.615,1041.27 746.5,1015.5 Z"/></g>
<g><path style="opacity:1" fill="#efecec" d="M 373.5,1041.5 C 373.173,1079.91 373.506,1118.24 374.5,1156.5C 349.916,1147.04 326.249,1135.71 303.5,1122.5C 305.423,1119.4 307.59,1116.4 310,1113.5C 318.744,1105.26 326.91,1096.59 334.5,1087.5C 329.125,1080.8 323.458,1074.46 317.5,1068.5C 335.368,1057.98 354.035,1048.98 373.5,1041.5 Z"/></g>
<g><path style="opacity:1" fill="#efecec" d="M 825.5,1041.5 C 844.651,1049.08 863.318,1057.74 881.5,1067.5C 876.811,1074.7 871.144,1081.2 864.5,1087C 875.372,1098.37 886.039,1109.87 896.5,1121.5C 873.823,1135 850.156,1146.67 825.5,1156.5C 825.5,1118.17 825.5,1079.83 825.5,1041.5 Z"/></g>
<g><path style="opacity:1" fill="#f9d1b7" d="M 317.5,1068.5 C 323.458,1074.46 329.125,1080.8 334.5,1087.5C 326.91,1096.59 318.744,1105.26 310,1113.5C 307.59,1116.4 305.423,1119.4 303.5,1122.5C 290.901,1115.23 278.568,1107.56 266.5,1099.5C 282.326,1087.41 299.326,1077.08 317.5,1068.5 Z"/></g>
<g><path style="opacity:1" fill="#f9d1b7" d="M 881.5,1067.5 C 899.336,1077.01 916.669,1087.34 933.5,1098.5C 921.968,1107.35 909.635,1115.01 896.5,1121.5C 886.039,1109.87 875.372,1098.37 864.5,1087C 871.144,1081.2 876.811,1074.7 881.5,1067.5 Z"/></g>
<g><path style="opacity:1" fill="#f9d1b8" d="M 715.5,1085.5 C 714.84,1120.18 715.507,1154.52 717.5,1188.5C 693.042,1193.64 668.376,1197.31 643.5,1199.5C 614.5,1199.5 585.5,1199.5 556.5,1199.5C 531.94,1197.39 507.606,1193.72 483.5,1188.5C 484.498,1154.67 484.832,1120.67 484.5,1086.5C 507.566,1113.38 536.566,1130.55 571.5,1138C 629.529,1147.12 677.529,1129.62 715.5,1085.5 Z"/></g>
</svg>
